<svg viewBox="0 0 384 512" xmlns="http://www.w3.org/2000/svg"><path d="m376.6 427.5c11.31 13.58 9.484 33.75-4.094 45.06-5.984 4.984-13.25 7.422-20.47 7.422-9.172 0-18.27-3.922-24.59-11.52l-135.446-163.362-135.4 162.5c-6.328 7.594-15.42 11.52-24.59 11.52-7.219 0-14.48-2.438-20.47-7.422-13.58-11.31-15.41-31.48-4.094-45.06l142.9-171.5-142.924-170.638c-11.313-13.58-9.485-33.75 4.098-45.06 13.56-11.34 33.73-9.516 45.06 4.094l135.42 162.466 135.4-162.5c11.3-13.58 31.48-15.42 45.06-4.094 13.58 11.31 15.41 31.48 4.094 45.06l-142.9 171.5z"/></svg>